<svg width="222" height="18" viewBox="0 0 222 18" fill="none" xmlns="http://www.w3.org/2000/svg">
<path d="M6.00028 14.1839C7.05628 14.1839 7.87228 13.9199 8.44828 13.3919C9.02428 12.8479 9.31228 12.1119 9.31228 11.1839V0.287889H13.3923V11.0399C13.3923 12.9919 12.7603 14.5359 11.4963 15.6719C10.2483 16.8079 8.46428 17.3759 6.14428 17.3759C4.88028 17.3759 3.69628 17.0159 2.59228 16.2959C1.48828 15.5599 0.624281 14.5679 0.000281274 13.3199L2.23228 12.0479C2.61628 12.6559 3.15228 13.1679 3.84028 13.5839C4.52828 13.9839 5.24828 14.1839 6.00028 14.1839ZM25.6364 17.3759C23.0764 17.3759 21.0364 16.7679 19.5164 15.5519C17.9964 14.3199 17.2364 12.5679 17.2364 10.2959V0.287889H21.3404V10.3919C21.3404 12.9199 22.7724 14.1839 25.6364 14.1839C28.5004 14.1839 29.9324 12.9199 29.9324 10.3919V0.287889H34.0364V10.2959C34.0364 12.5839 33.2844 14.3359 31.7804 15.5519C30.2764 16.7679 28.2284 17.3759 25.6364 17.3759ZM37.8848 17.0879V0.287889H41.9888V13.9439H50.9408V17.0879H37.8848ZM53.2627 0.287889H57.3907V17.0879H53.2627V0.287889ZM61.3223 17.0879V0.287889H74.3063V3.33589H65.4263V6.93589H73.2983V9.98389H65.4263V14.0399H74.5703V17.0879H61.3223ZM86.0958 17.0879V0.287889H93.3678C95.6398 0.287889 97.3598 0.70389 98.5278 1.53589C99.7118 2.35189 100.304 3.46389 100.304 4.87189C100.304 5.67189 100.064 6.38389 99.5838 7.00789C99.1198 7.61589 98.4718 8.03189 97.6398 8.25589C98.7758 8.47989 99.6718 8.94389 100.328 9.64789C100.984 10.3359 101.312 11.1679 101.312 12.1439C101.312 13.6799 100.696 14.8879 99.4638 15.7679C98.2478 16.6479 96.3678 17.0879 93.8238 17.0879H86.0958ZM93.4638 14.1839C95.9438 14.1839 97.1838 13.4639 97.1838 12.0239C97.1838 10.5839 95.9438 9.86389 93.4638 9.86389H90.1278V14.1839H93.4638ZM96.4398 5.08789C96.4398 3.82389 95.3198 3.19189 93.0798 3.19189H90.1278V7.05589H93.0798C95.3198 7.05589 96.4398 6.39989 96.4398 5.08789ZM119.024 5.73589C119.024 6.90389 118.68 7.91989 117.992 8.78389C117.304 9.63189 116.368 10.2479 115.184 10.6319L120.344 17.0879H115.76L111.392 11.1599H108.176V17.0879H104.072V0.287889H111.176C113.64 0.287889 115.56 0.75989 116.936 1.70389C118.328 2.64789 119.024 3.99189 119.024 5.73589ZM113.96 7.55989C114.6 7.12789 114.92 6.51989 114.92 5.73589C114.92 4.95189 114.6 4.34389 113.96 3.91189C113.336 3.46389 112.416 3.23989 111.2 3.23989H108.176V8.20789H111.2C112.416 8.20789 113.336 7.99189 113.96 7.55989ZM122.614 0.287889H126.742V17.0879H122.614V0.287889ZM146.922 17.0879H142.29L137.898 11.0159L133.53 17.0879H128.898L135.138 8.42389L129.33 0.287889H133.962L137.898 5.71189L141.858 0.287889H146.49L140.634 8.42389L146.922 17.0879ZM159.611 0.287889L166.643 17.0879H162.179L160.859 13.6319H153.083L151.787 17.0879H147.323L154.331 0.287889H159.611ZM156.971 3.40789L154.235 10.6079H159.731L156.971 3.40789ZM170.088 14.9999C168.328 13.4159 167.448 11.3119 167.448 8.68789C167.448 6.06389 168.304 3.95989 170.016 2.37589C171.744 0.79189 174.032 -0.000109673 176.88 -0.000109673C179.152 -0.000109673 181.016 0.55989 182.472 1.67989C183.944 2.79989 184.88 4.29589 185.28 6.16789H181.2C180.944 5.20789 180.416 4.47189 179.616 3.95989C178.816 3.44789 177.872 3.19189 176.784 3.19189C175.296 3.19189 174.056 3.67989 173.064 4.65589C172.088 5.61589 171.6 6.95989 171.6 8.68789C171.6 10.4159 172.112 11.7679 173.136 12.7439C174.16 13.7039 175.424 14.1839 176.928 14.1839C178.384 14.1839 179.512 13.8639 180.312 13.2239C181.112 12.5679 181.512 11.7279 181.512 10.7039H176.832V7.94389H185.4V9.55189C185.4 12.1119 184.648 14.0559 183.144 15.3839C181.656 16.7119 179.616 17.3759 177.024 17.3759C174.16 17.3759 171.848 16.5839 170.088 14.9999ZM188.658 17.0879V0.287889H201.642V3.33589H192.762V6.93589H200.634V9.98389H192.762V14.0399H201.906V17.0879H188.658ZM219.735 5.73589C219.735 6.90389 219.391 7.91989 218.703 8.78389C218.015 9.63189 217.079 10.2479 215.895 10.6319L221.055 17.0879H216.471L212.103 11.1599H208.887V17.0879H204.783V0.287889H211.887C214.351 0.287889 216.271 0.75989 217.647 1.70389C219.039 2.64789 219.735 3.99189 219.735 5.73589ZM214.671 7.55989C215.311 7.12789 215.631 6.51989 215.631 5.73589C215.631 4.95189 215.311 4.34389 214.671 3.91189C214.047 3.46389 213.127 3.23989 211.911 3.23989H208.887V8.20789H211.911C213.127 8.20789 214.047 7.99189 214.671 7.55989Z" fill="#233FF9"/>
</svg>
