<svg width="1036" height="691" viewBox="0 0 1036 691" fill="none" xmlns="http://www.w3.org/2000/svg">
<path d="M4.95 389.5C4.95 356.05 21.45 335.5 53.25 335.5C84 335.5 101.7 356.05 101.7 389.5C101.7 422.8 85.2 443.5 53.25 443.5C22.8 443.5 4.95 422.8 4.95 389.5ZM25.35 380.35C25.35 401.95 31.5 438.55 56.4 438.55C73.8 438.55 81.3 422.2 81.3 398.65C81.3 376.9 75.15 340.45 50.1 340.45C32.85 340.45 25.35 356.5 25.35 380.35ZM118.791 420.55V360.7C118.791 348.4 116.991 340.3 110.841 337.3V337H134.541L172.641 417.25H172.941L208.341 337H235.041V337.3C229.341 340.3 227.391 346.45 227.391 358.45V420.55C227.391 432.55 229.341 438.7 235.041 441.7V442H200.541V441.7C206.241 438.7 208.341 432.55 208.341 420.55V350.05L168.141 442H162.441L124.341 361.75H124.041V420.55C124.041 432.55 126.291 438.7 134.841 441.7V442H110.991V441.7C116.691 438.7 118.791 432.55 118.791 420.55ZM291.454 334.9H324.604L349.654 408.55H349.954L373.654 334.9H406.804V442H384.754V366.1H384.454L358.204 442H340.054L313.804 366.85H313.504V442H291.454V334.9ZM427.538 334.9H451.088V442H427.538V334.9ZM549.176 429.85C544.976 435.25 540.326 439.05 535.226 441.25C530.126 443.35 524.976 444.4 519.776 444.4C511.576 444.4 504.176 443 497.576 440.2C491.076 437.3 485.576 433.35 481.076 428.35C476.576 423.35 473.126 417.5 470.726 410.8C468.326 404 467.126 396.7 467.126 388.9C467.126 380.9 468.326 373.5 470.726 366.7C473.126 359.8 476.576 353.8 481.076 348.7C485.576 343.6 491.076 339.6 497.576 336.7C504.176 333.8 511.576 332.35 519.776 332.35C525.276 332.35 530.576 333.2 535.676 334.9C540.876 336.5 545.526 338.9 549.626 342.1C553.826 345.3 557.276 349.25 559.976 353.95C562.676 358.65 564.326 364.05 564.926 370.15H542.426C541.026 364.15 538.326 359.65 534.326 356.65C530.326 353.65 525.476 352.15 519.776 352.15C514.476 352.15 509.976 353.2 506.276 355.3C502.576 357.3 499.576 360.05 497.276 363.55C494.976 366.95 493.276 370.85 492.176 375.25C491.176 379.65 490.676 384.2 490.676 388.9C490.676 393.4 491.176 397.8 492.176 402.1C493.276 406.3 494.976 410.1 497.276 413.5C499.576 416.9 502.576 419.65 506.276 421.75C509.976 423.75 514.476 424.75 519.776 424.75C527.576 424.75 533.576 422.8 537.776 418.9C542.076 414.9 544.576 409.15 545.276 401.65H521.576V384.1H566.576V442H551.576L549.176 429.85Z" fill="#233FF9"/>
<path d="M651.186 74.342C653.982 73.9466 658.378 92.541 657.717 97.9056C657.695 98.0659 657.482 99.765 657.183 102.234C657.034 103.43 656.863 104.862 656.671 106.54C656.105 111.306 655.39 112.909 655.625 115.699C655.902 118.979 656.959 120.529 657.834 123.029C660.566 130.841 656.81 134.507 657.834 142.66C658.677 149.404 661.441 148.399 664.258 157.055C668.431 169.89 663.34 175.083 668.441 183.237C668.847 183.889 674.588 192.801 681.247 191.348C685.814 190.354 688.066 184.509 689.346 181.142C691.011 176.793 690.317 174.624 690.648 165.957C690.744 163.531 691.235 158.316 692.217 147.897C693.657 132.594 693.924 133.62 693.785 130.884C693.263 120.775 690.275 118.915 691.961 112.033C692.697 109.03 693.892 106.807 693.807 102.608C693.721 98.878 692.718 97.8094 692.227 94.7531C691.16 88.0634 694.693 85.0498 696.251 77.409C697.339 72.0657 696.122 71.0185 695.813 61.9243C695.13 42.2505 699.569 41.3422 698.524 27.2254C698.235 23.3676 696.752 17.9602 697.115 9.90265C697.168 8.65234 697.809 0.327593 698.524 1.04359C699.089 1.60997 702.643 14.0063 702.803 27.4926C702.888 34.9089 702.109 36.5012 702.803 43.4367C703.475 50.1585 704.51 51.6653 705.076 58.7504C705.609 65.344 704.798 65.0661 705.076 73.4229C705.492 85.9795 707.338 86.9306 705.961 93.1608C704.905 97.9376 703.539 98.675 703.016 103.869C702.771 106.294 702.984 107 703.272 114.844C703.592 123.478 703.358 123.297 703.656 125.049C704.713 131.333 707.509 132.765 709.771 138.065C713.303 146.347 708.811 148.335 710.785 162.687C711.873 170.584 713.965 175.201 716.259 180.287C719.909 188.366 722.331 189.841 724.284 190.237C726.749 190.739 729.716 189.756 731.54 187.811C735.339 183.782 731.178 178.92 734.219 172.123C736.801 166.342 740.728 167.816 743.642 161.148C744.73 158.658 745.296 155.623 746.448 149.543C747.227 145.375 747.291 143.847 748.614 141.635C750.45 138.568 752.04 138.632 753.587 135.896C755.273 132.893 754.452 130.863 754.857 126.716C755.519 119.962 760.449 107.684 760.449 109.041C760.449 112.664 763.917 127.005 759.19 134.624C758.592 135.597 756.991 137.905 756.383 141.389C755.892 144.221 756.394 145.92 756.511 147.64C757.066 155.773 750.834 158.882 750.119 167.709C749.703 172.828 750.173 172.476 749.127 178.129C748.326 182.457 746.459 183.483 746.704 186.934C746.95 190.343 749.137 194.319 752.435 195.612C756.938 197.375 761.922 193.528 766.83 189.745C769.071 188.014 776.146 182.243 781.984 171.375C785.292 165.22 784.534 164.268 788.354 157.857C792.068 151.626 793.316 151.637 796.635 145.866C800.263 139.561 801.992 133.94 803.134 130.179C806.175 120.101 804.383 119.556 806.954 114.363C810.145 107.908 813.389 107.78 819.056 100.075C821.67 96.527 822.46 94.5393 826.568 86.0436C835.329 67.9301 839.886 58.4619 841.092 59.2527C841.444 59.4878 843.738 71.8093 838.541 82.0896C835.265 88.5656 832.171 89.3564 830.773 95.608C829.449 101.496 831.658 103.121 830.773 110.665C829.972 117.472 827.977 117.793 826.44 124.696C824.477 133.545 827.497 135.479 822.769 145.599C821.393 148.538 814.584 154.319 813.901 165.658C813.133 178.428 809.825 181.869 807.733 186.892C805.332 192.652 810.604 194.586 808.214 199.448C806.794 202.344 806.73 205.839 806.047 212.582C805.375 219.207 805.716 221.249 806.826 223.108C807.125 223.61 808.961 226.688 811.895 227.329C816.74 228.387 819.803 221.804 830.794 212.165C836.226 207.399 841.657 202.633 849.938 198.636C853.919 196.712 855.818 196.285 859.382 193.881C863.736 190.931 865.422 188.505 870.875 182.115C879.21 172.358 883.478 167.4 888.76 163.638C892.901 160.699 893.424 161.159 898.589 157.45C904.938 152.898 908.822 148.848 911.298 146.411C921.51 136.345 936.087 125.637 937.635 127.144C938.979 128.447 931.307 139.743 922.396 148.73C916.74 154.437 907.819 162.014 901.395 167.09C898.749 169.184 894.544 172.411 890.372 177.915C888.163 180.832 888.355 181.228 885.591 185.022C884.716 186.218 882.998 188.527 875.197 196.98C869.445 203.21 866.575 206.33 865.294 207.313C861.911 209.932 859.446 211.075 856.661 214.698C855.103 216.718 854.762 217.797 853.225 220.672C851.859 223.215 848.636 229.199 844.026 234.179C838.573 240.057 836.066 239.245 833.28 244.31C831.765 247.056 831.328 249.45 830.613 253.308C829.78 257.796 829.097 261.772 830.73 266.142C831.392 267.906 832.277 270.278 834.593 271.817C838.499 274.424 843.599 272.779 845.616 272.137C850.312 270.631 851.069 268.461 858.134 264.807C859.788 263.952 861.196 262.744 863.491 262.359C866.436 261.868 867.044 263.054 869.637 262.594C872.529 262.082 872.956 260.393 876.99 258.266C878.911 257.251 879.007 257.54 883.147 256.012C889.123 253.799 890.041 252.795 894.544 251.203C898.226 249.899 898.781 250.155 903.22 248.916C913.678 245.998 919.024 242.226 919.568 243.06C919.899 243.562 917.914 244.919 910.53 251.929C906.763 255.499 904.81 257.497 901.192 259.271C898.845 260.425 898.834 260.008 895.995 261.195C888.12 264.507 887.576 268.066 881.12 270C877.438 271.101 877.129 270.096 874.493 271.411C871.121 273.11 870.075 275.557 866.351 276.743C864.334 277.384 864.28 276.711 862.445 277.288C859.244 278.293 858.208 280.494 855.007 283.818C850.376 288.627 849.245 287.44 847.366 290.529C845.499 293.607 844.133 298.864 846.619 301.878C848.892 304.635 853.364 304.229 855.818 304.004C862.957 303.363 865.219 299.676 871.718 297.357C875.88 295.872 876.862 296.706 888.75 296.545C895.686 296.449 904.703 296.299 915.161 294.686C925.918 293.029 931.296 292.207 935.991 289.471C938.424 288.05 941.466 285.87 946.513 284.673C950.238 283.796 951.55 284.288 955.829 283.989C961.24 283.615 965.924 282.076 975.294 278.987C984.588 275.931 984.012 275.493 987.779 274.627C996.775 272.554 1006.52 272.853 1006.86 274.627C1007.19 276.348 998.589 279.394 993.563 281.167C984.578 284.341 979.498 286.457 972.594 286.553C970.63 286.575 969.339 286.447 967.237 286.949C962.307 288.135 961.186 290.86 956.427 294.141C952.148 297.09 951.465 295.979 939.225 301.408C934.124 303.673 934.625 303.791 932.598 304.485C925.8 306.815 923.367 305.159 916.111 306.302C908.886 307.435 910.53 309.198 899.538 311.912C895.184 312.992 892.196 313.387 888.312 315.749C884.214 318.239 884.919 319.393 882.208 320.622C875.592 323.635 870.64 317.149 863.064 319.649C859.788 320.729 855.957 323.518 855.861 326.799C855.754 330.411 860.225 333.05 861.186 333.627C864.899 335.829 868.474 335.754 873.906 335.572C891.802 334.984 894.576 334.899 898.578 335.38C905.557 336.224 904.394 337.378 910.978 338.244C923.879 339.932 925.726 335.123 938.488 335.786C948.786 336.32 950.675 339.612 961.912 338.938C962.552 338.896 965.871 338.468 972.498 337.613C986.189 335.839 987.811 335.497 991.685 335.262C995.558 335.027 997.415 335.155 1007.71 335.658C1031.87 336.823 1034.95 336.737 1035 337.378C1035.11 338.8 1020.31 343.758 1003.98 342.892C997.97 342.572 993.424 341.546 986.84 343.534C985.314 343.993 981.814 345.425 974.803 348.289C968.336 350.929 967.984 351.174 966.02 351.762C960.61 353.387 956.149 353.654 952.991 353.814C945.414 354.22 944.411 353.034 937.976 353.814C933.409 354.37 933.441 355.032 928.489 355.866C921.585 357.041 916.132 356.678 910.86 356.293C903.679 355.77 904.34 355.075 893.114 353.782C892.73 353.739 886.37 353.023 877.865 352.767C872.401 352.606 869.05 352.735 865.145 354.081C859.916 355.887 858.369 358.27 857.974 358.933C857.654 359.456 855.893 362.417 856.864 365.505C857.835 368.593 860.951 369.918 865.753 371.981C869.477 373.573 872.295 373.926 872.924 374.001C875.773 374.332 876.552 373.883 878.879 374.001C883.585 374.236 885.367 376.32 889.283 377.645C893.979 379.226 894.544 377.281 902.612 377.645C911.746 378.051 920.166 380.958 923.218 382.09C925.864 383.084 927.465 383.886 930.485 384.42C934.999 385.221 936.418 384.324 940.644 385.083C945.521 385.948 949.555 388.192 949.395 388.727C949.234 389.272 944.902 387.669 937.624 387.466C931.019 387.284 930.762 388.492 926.067 387.743C921.799 387.06 921.105 385.916 916.196 385.36C914.062 385.115 914.126 385.328 908.63 385.221C899.794 385.05 900.317 384.527 898.194 384.944C893.039 385.959 892.57 388.545 887.618 388.844C886.039 388.94 884.513 388.662 881.45 388.096C877.299 387.337 876.808 386.792 872.551 385.852C866.671 384.548 863.725 384.741 862.392 384.869C857.835 385.328 856.65 386.76 856.298 387.252C856.192 387.391 854.964 389.154 855.455 391.184C855.999 393.461 858.198 393.92 861.687 396.581C865.625 399.584 864.953 400.61 867.706 402.33C871.025 404.404 873.298 403.73 877.929 404.5C880.554 404.938 884.268 406.626 891.588 409.971C902.046 414.759 907.275 417.142 907.03 417.858C906.752 418.67 900.157 417.74 894.021 415.485C887.597 413.124 886.445 411.061 880.629 410.1C878.324 409.715 875.539 409.554 872.817 409.394C867.311 409.074 866.34 409.373 864.11 408.497C861.826 407.599 861.527 406.744 858.347 405.611C856.213 404.852 854.207 404.158 853.097 405.098C851.88 406.124 852.382 408.539 852.457 408.881C853.001 411.457 854.879 413.038 860.972 417.024C867.535 421.32 870.886 423.49 874.087 424.548C878.345 425.947 878.452 425.071 882.294 426.514C886.028 427.925 888.515 429.784 893.338 433.449C898.557 437.425 898.098 437.745 902.729 441.09C907.2 444.318 908.054 444.318 911.298 447.043C912.707 448.229 913.208 448.784 918.17 453.925C923.1 459.033 925.576 461.598 926.195 462.068C929.215 464.397 932.267 465.648 938.371 468.148C945.884 471.226 945.66 470.2 949.416 472.337C952.414 474.037 954.122 475.575 957.302 475.746C959.255 475.853 960.066 475.351 962.083 475.746C964.804 476.281 966.565 477.841 967.642 478.739C974.483 484.467 979.797 485.685 979.413 486.818C978.89 488.346 968.72 487.512 959.82 483.889C956.373 482.49 954.389 481.175 949.843 480.064C946.129 479.145 945.467 479.54 941.05 478.322C937.315 477.307 936.408 476.655 933.43 476.27C930.015 475.832 929.717 476.494 927.156 476.078C923.805 475.533 923.549 474.272 918.266 471.718C913.902 469.623 909.687 468.362 908.225 467.935C904.682 466.898 903.914 466.983 901.886 465.947C899.73 464.846 898.962 463.916 895.739 461.202C892.719 458.659 890.799 457.045 888.632 455.688C884.844 453.316 881.44 452.439 878.334 451.648C871.163 449.821 870.299 451.328 865.668 449.404C861.239 447.566 861.581 445.995 856.907 444.211C852.787 442.64 849.031 442.522 846.993 442.479C840.622 442.341 838.157 444.072 834.817 442.137C832.736 440.941 832.8 439.744 831.082 439.38C827.827 438.686 823.26 442.009 822.545 445.814C822.278 447.246 822.534 448.87 827.272 455.421C831.872 461.779 834.177 464.953 838.136 469.27C840.75 472.113 843.365 474.678 843.706 478.6C843.845 480.181 843.493 480.523 843.781 482.137C844.4 485.61 846.63 487.181 848.86 490.194C851.315 493.507 850.739 494.448 852.883 498.177C854.612 501.202 855.903 502.163 865.017 510.467C873.511 518.204 874.568 519.336 875.667 520.64C878.004 523.387 880.629 526.464 882.998 531.166C885.036 535.195 884.812 536.296 886.882 539.502C889.091 542.921 890.382 543.285 894.011 547.207C899.015 552.603 901.918 557.711 903.038 559.71C906.251 565.427 904.97 565.288 908.043 570.375C910.38 574.233 912.707 578.069 916.858 581.82C918.32 583.135 919.888 584.342 921.585 586.768C923.207 589.087 925.021 592.646 924.338 593.201C922.898 594.366 910.839 581.724 909.591 580.42C903.561 574.072 903.817 573.335 899.005 568.836C893.893 564.049 892.858 564.187 887.789 559.304C884.033 555.681 881.45 552.571 878.121 548.564C871.836 540.987 872.455 540.613 868.805 537.119C866.137 534.565 862.509 531.134 856.949 528.783C854.73 527.843 854.442 528.024 853.001 527.159C849.02 524.765 849.117 522.115 844.677 518.182C842.223 516.013 841.679 516.366 840.302 514.581C838.125 511.76 838.787 509.964 837.335 507.303C835.233 503.435 832.309 504.407 828.308 500.667C823.858 496.51 826.067 493.988 821.606 488.795C817.839 484.413 816.11 486.016 810.732 480.758C806.229 476.355 806.037 473.844 802.622 472.444C798.855 470.905 793.861 470.948 792.484 473.214C791.758 474.4 792.313 475.725 792.964 478.055C795.131 485.792 793.124 485.824 794.992 491.306C796.4 495.431 799.186 500.24 801.95 503.595C802.729 504.546 803.614 505.508 804.265 507.175C805.332 509.911 804.436 511.086 805.524 514.047C806.282 516.12 806.773 515.682 807.744 518.107C808.726 520.576 808.342 521.335 809.291 524.006C809.996 526.005 810.369 526.037 811.415 528.356C812.824 531.487 813.933 535.377 813.442 535.612C812.877 535.879 810.903 530.963 805.62 524.391C804.447 522.938 803.283 521.602 801.565 519.165C799.655 516.462 798.407 514.303 798.086 513.747C795.493 509.216 796.016 508.703 793.743 504.461C791.246 499.823 790.222 499.716 788.525 495.655C787.244 492.599 787.821 492.62 786.594 489.852C785.654 487.726 783.904 483.879 779.988 481.111C778.078 479.764 776.125 478.386 773.82 478.845C770.949 479.412 768.805 482.554 768.527 485.407C768.228 488.538 770.416 488.987 771.099 493.475C771.728 497.6 769.989 497.996 770.917 502.035C771.451 504.365 772.241 505.198 772.678 508.287C773.02 510.702 772.614 510.766 772.913 512.38C773.617 516.152 775.976 516.569 777.587 520.33C778.782 523.141 777.758 523.59 778.75 528.281C779.529 531.968 780.287 532.224 781.674 536.467C783.51 542.088 784.064 547.367 784.246 550.145C784.502 554.164 784.139 555.734 785.068 559.154C785.879 562.157 786.423 561.975 787.405 565C788.781 569.253 787.959 570.482 789.037 578.101C789.582 581.98 789.859 583.925 790.553 585.464C792.473 589.728 794.704 589.771 796.155 593.885C797.179 596.792 796.198 597.155 797.436 601.131C798.428 604.315 799.164 604.411 800.007 607.329C800.274 608.269 800.605 609.658 800.829 615.044C801.181 623.764 801.117 624 800.946 624.053C799.698 624.416 798.684 614.082 790.542 604.903C788.13 602.178 785.526 600.062 784.246 595.734C783.168 592.09 784.31 591.213 783.478 587.804C782.09 582.109 777.982 580.794 774.033 575.291C771.472 571.721 773.084 572.074 768.783 561.719C765.134 552.935 763.928 552.283 762.295 546.523C760.332 539.577 761.932 539.983 760.097 535.345C757.344 528.399 753.545 526.988 751.987 519.871C751.25 516.515 752.125 516.985 751.41 513.47C751.186 512.38 748.444 499.78 739.48 497.515C738.167 497.183 735.884 496.606 733.568 497.611C728.787 499.684 727.219 507.047 725.266 516.237C724.689 518.962 724.38 521.11 723.067 524.263C721.68 527.597 720.784 528.174 720.015 530.664C718.98 534.02 719.567 536.306 719.919 540.218C719.919 540.218 720.506 546.854 719.631 553.79C718.564 562.189 715.608 562.499 714.093 570.514C713.506 573.602 713.847 574.126 714.573 587.142C715.171 597.85 714.84 595.531 715.523 608.355C715.886 615.044 716.099 621.734 716.569 628.424C716.878 632.816 717.038 634.355 716.857 637.122C716.515 642.113 715.502 643.994 716.003 647.916C716.441 651.4 717.38 650.972 718.201 654.798C719.642 661.498 717.871 667.846 717.06 670.753C716.494 672.762 716.014 673.873 715.587 676.374C715.213 678.554 715.256 679.58 714.936 683.352C714.562 687.755 714.381 689.967 714.05 689.999C713.154 690.106 710.71 681.803 710.166 672.644C709.92 668.53 710.081 664.608 710.326 658.538C710.486 654.648 710.667 652.458 710.646 648.322C710.625 643.737 710.614 641.45 710.241 639.238C709.141 632.688 706.26 631.213 704.009 625.293C702.899 622.386 702.728 618.079 702.387 609.477C701.778 594.088 703.475 593.041 701.394 587.698C700.412 585.186 698.918 582.536 698.673 578.208C698.513 575.333 699.068 574.639 698.78 571.305C698.524 568.312 697.926 567.19 696.923 562.958C696.432 560.875 696.08 558.823 695.375 554.709C693.508 543.787 692.505 537.92 692.292 530.482C692.174 526.646 692.195 519.946 690.723 512.016C690.392 510.232 689.805 507.432 687.468 505.754C684.491 503.617 680.649 504.728 680.308 504.846C675.42 506.342 672.816 512.059 672.358 516.195C672.069 518.759 672.795 519.112 672.358 522.713C672.027 525.417 671.728 527.907 670.01 530.151C668.324 532.363 666.958 532.128 666.232 534.062C665.688 535.516 666.254 536.2 666.659 539.577C667.001 542.43 666.67 542.547 666.905 546.587C667.139 550.68 667.481 550.787 667.63 553.597C667.897 558.887 666.905 562.991 666.659 563.91C665.592 568.099 664.781 567.5 662.956 573.175C661.772 576.862 661.025 579.191 660.833 582.515C660.694 584.812 660.907 586.223 660.352 589.033C659.862 591.523 659.435 591.716 659.04 593.671C658.464 596.546 659.179 597.177 659.445 602.338C659.509 603.567 659.445 606.121 659.349 611.208C659.275 614.563 659.232 615.13 659.051 615.942C658.293 619.351 656.116 622.92 654.963 622.642C653.523 622.3 653.651 615.942 653.758 610.823C653.843 606.805 654.163 605.501 653.544 602.84C652.701 599.271 651.57 599.335 651.122 596.493C650.556 592.987 652.125 591.887 652.786 586.533C652.989 584.876 652.925 582.803 652.786 578.657C652.754 577.727 652.616 573.709 652.039 566.923C651.495 560.543 651.303 560.255 651.559 558.609C652.2 554.612 653.726 554.196 654.963 549.825C656.031 546.063 655.22 545.251 655.785 539.609C656.319 534.201 657.108 534.5 658.165 527.886C659.552 519.208 658.773 515.062 658.304 513.106C657.589 510.167 656.532 508.009 654.697 506.427C653.918 505.754 652.402 504.482 650.204 504.45C649.692 504.45 648.251 504.493 646.875 505.401C645.541 506.288 644.804 507.645 643.951 510.584C642.787 514.602 641.507 514.431 640.867 516.985C640.034 520.298 636.321 516.825 636.118 521.602C635.915 526.379 631.54 531.209 629.833 536.841C627.271 545.294 628.765 545.743 626.503 551.171C624.774 555.328 623.921 554.89 620.677 561.986C616.686 570.685 616.248 574.521 613.868 578.187C612.94 579.608 612.609 579.074 610.976 580.068C608.661 581.478 607.839 584.866 606.537 587.954C603.112 596.076 601.991 594.772 600.529 599.421C598.961 604.379 598.182 606.367 598.075 608.258C597.808 613.153 598.651 612.928 598.075 615.525C597.477 618.24 595.407 621.039 591.277 626.65C589.965 628.434 588.727 630.016 587.51 632.623C586.646 634.472 586.262 635.861 585.952 636.855C584.213 642.476 580.873 649.348 579.891 649.091C578.899 648.824 578.706 643.353 580.531 638.512C581.449 636.086 581.961 636.246 582.602 634.13C583.807 630.155 582.185 628.958 582.666 624.106C582.996 620.719 583.807 621.136 584.778 615.429C585.291 612.48 585.163 611.817 585.739 609.84C586.689 606.57 587.894 605.362 588.951 603.225C590.263 600.532 589.794 599.495 590.103 587.089C590.199 583.263 590.317 580.634 590.488 577.898C590.968 570.428 591.501 568.419 591.896 567.169C592.376 565.651 592.419 565.972 595.108 559.774C596.826 555.799 597.691 553.811 598 552.828C598.672 550.69 598.747 549.494 599.217 541.19C599.441 537.311 599.889 533.443 599.889 529.563C599.889 525.738 599.665 523.408 600.615 519.924C601.138 517.99 601.34 518.246 602.471 515.137C604.446 509.729 604.04 508.479 605.897 503.339C607.359 499.278 607.7 499.834 608.202 497.589C609.29 492.77 608.074 488.698 607.583 487.095C606.985 485.182 605.438 480.213 600.721 476.847C599.238 475.789 596.816 474.058 593.732 474.282C592.867 474.346 592.078 474.549 587.372 477.349C585.493 478.461 583.999 479.39 579.699 482.041C577.138 483.622 575.815 484.424 574.022 485.225C571.792 486.219 571.567 486.037 570.586 486.657C568.089 488.25 567.491 490.772 566.285 493.593C565.005 496.585 563.596 498.498 560.789 502.345C557.086 507.421 556.254 506.523 551.996 512.027C548.934 515.992 547.386 517.99 545.754 520.961C545.754 520.961 543.854 524.434 540.941 527.073C540.407 527.554 539.842 528.003 539.084 528.409C537.558 529.221 536.512 529.189 535.456 529.521C533.652 530.076 532.799 531.369 531.454 532.93C528.925 535.879 524.56 539.886 523.824 539.384C522.842 538.711 526.321 528.644 534.271 522.542C535.947 521.26 536.608 521.078 538.049 519.636C538.839 518.845 541.442 516.098 544.324 507.442C546.063 502.217 545.732 501.383 547.354 498.647C548.197 497.226 549.553 495.709 552.231 492.738C557.076 487.352 557.823 487.17 559.135 484.798C560.672 482.019 561.206 479.455 561.579 477.681C562.497 473.288 561.558 473.011 562.273 470.104C563.66 464.451 567.523 464.258 568.964 458.317C569.38 456.607 570.031 453.903 568.537 451.542C567.15 449.362 564.354 448.143 561.963 448.389C559.797 448.613 559.594 449.874 556.958 450.612C553.725 451.52 553.117 449.885 550.065 450.452C546.618 451.082 546.469 453.337 540.791 456.212C538.422 457.408 538.647 456.917 536.213 458.124C530.718 460.849 530.931 462.688 527.111 464.29C522.629 466.171 521.679 463.906 516.792 466.118C514.209 467.283 513.324 468.437 510.549 468.896C507.839 469.345 507.198 468.49 505.085 468.811C501.66 469.334 500.593 471.995 497.114 475.062C495.022 476.901 495.577 475.8 485.674 481.143C476.913 485.866 476.348 486.807 473.541 487.127C472.666 487.224 470.671 487.373 468.515 488.602C466.583 489.703 466.669 490.59 465.132 491.552C462.368 493.294 460.682 491.488 456.979 492.588C455.549 493.016 453.746 494.469 450.214 497.365C447.631 499.481 446.127 500.86 444.665 502.142C440.193 506.064 437.952 508.03 435.039 509.783C431.88 511.685 426.641 514.848 419.961 514.902C416.941 514.934 415.02 514.314 411.904 515.425C409.46 516.301 409.065 517.231 406.099 518.46C403.292 519.625 397.295 520.512 398.213 519.764C399.973 518.321 401.862 513.961 407.486 512.038C410.655 510.948 411.071 511.813 414.155 510.734C418.36 509.27 419.865 506.897 424.293 503.264C428.668 499.684 431.005 497.996 433.737 497.012C437.483 495.666 438.326 496.542 441.143 494.907C444.515 492.952 444.697 490.878 447.962 489.393C450.694 488.143 451.345 489.243 454.258 488.431C460.117 486.796 460.031 481.645 467.725 476.868C469.433 475.81 470.937 475.137 473.936 473.801C478.962 471.557 480.595 471.397 483.124 470.211C486.923 468.426 486.827 467.122 493.358 461.191C496.196 458.605 500.582 454.662 506.825 450.858C510.069 448.881 512.779 447.246 516.802 445.953C521.935 444.296 522.586 445.322 526.247 443.762C527.378 443.281 528.37 442.736 536.747 435.181C541.848 430.585 542.84 429.549 543.267 427.593C543.982 424.302 542.435 421.374 541.688 419.952C541.25 419.13 539.169 415.218 535.104 414C534.261 413.744 532.799 413.337 531.454 414C530.238 414.609 530.451 415.443 529.234 416.608C528.039 417.751 526.182 418.157 522.533 418.916C519.78 419.482 520.164 419.204 519.364 419.493C515.714 420.797 515.949 423.714 512.961 424.868C510.891 425.67 510.538 424.366 505.672 424.622C504.669 424.676 502.62 424.804 500.166 425.499C496.538 426.535 496.666 427.508 493.795 428.245C490.839 428.993 490.306 428.063 485.621 428.512C481.843 428.876 479.869 429.709 479.752 429.399C479.592 428.961 483.337 426.76 487.926 425.488C492.141 424.323 492.835 425.114 496.196 423.885C499.184 422.784 501.18 421.224 503.57 419.343C508.212 415.699 508.575 413.904 511.659 412.931C513.814 412.258 514.305 412.931 517.795 412.846C520.388 412.782 527.751 412.622 532.19 407.866C532.521 407.513 536.534 403.121 535.125 399.584C534.325 397.586 532.169 396.784 528.189 395.309C525.574 394.337 523.248 393.942 519.833 393.354C518.019 393.044 517.091 392.884 516.28 392.905C512.769 393.001 510.592 394.85 508.906 395.758C504.221 398.248 501.639 394.337 489.708 393.536C484.671 393.194 480.947 392.948 476.198 393.888C474.128 394.294 471.503 395.01 467.661 394.871C464.684 394.764 463.894 394.241 461.888 394.07C456.574 393.621 455.005 396.635 448.378 398.697C446.842 399.178 442.146 399.584 432.734 400.386C427.879 400.802 425.606 400.92 422.511 402.256C418.584 403.955 418.637 405.323 415.575 406.616C410.986 408.561 407.582 406.861 400.027 405.814C400.027 405.814 394.35 405.023 385.012 405.28C370.275 405.675 361.397 410.645 361.013 409.725C360.554 408.614 372.74 399.189 389.27 397.265C399.472 396.079 400.592 398.996 412.469 397.083C422.66 395.448 424.026 392.948 432.82 392.99C437.141 393.012 440.716 393.632 446.063 392.104C449.958 390.981 450.48 389.966 454.685 388.192C459.146 386.311 463.798 385.67 472.901 384.452C483.625 383.031 484.757 383.629 489.078 381.962C494.105 380.017 493.134 378.981 499.568 375.999C507.273 372.43 509.802 373.392 514.85 369.587C519.214 366.306 520.495 363.197 520.89 362.107C521.135 361.433 523.109 356.005 520.623 353.472C519.598 352.425 517.464 352.318 513.249 352.136C508.543 351.933 508.116 352.435 505.875 351.869C503.197 351.196 503.303 350.352 499.654 348.845C497.957 348.139 494.809 346.836 491.213 346.889C487.649 346.943 487.104 348.268 483.657 348.941C479.88 349.678 478.055 348.567 468.728 346.088C463.073 344.592 460.245 343.833 457.001 343.331C449.99 342.23 447.546 343.031 441.09 342.529C433.524 341.941 424.411 340.199 424.475 339.024C424.539 337.709 436.032 339.12 449.808 336.117C451.441 335.765 454.973 334.942 459.668 335.23C463.884 335.487 466.637 336.502 468.472 337.015C477.468 339.537 479.901 334.504 495.31 334.076C504.968 333.809 509.791 333.67 513.441 334.525C516.034 335.134 518.873 336.064 521.092 334.546C523.536 332.89 524.016 329.096 523.653 326.564C522.885 321.231 517.934 318.217 516.482 317.33C511.307 314.178 509.461 316.529 503.826 313.59C498.416 310.78 498.459 307.755 493.507 306.12C490.359 305.073 488.396 305.65 484.138 305.971C479.901 306.291 473.755 305.543 461.451 304.069C453.383 303.096 449.349 302.615 444.697 301.579C435.882 299.623 431.475 298.651 427.132 295.861C424.848 294.397 423.087 292.848 419.598 291.758C417.4 291.074 415.127 290.924 410.666 290.657C402.897 290.198 402.47 290.775 399.621 289.92C396.559 289.001 396.569 288.188 391.938 286.404C388.672 285.143 387.093 284.94 384.543 284.202C377.062 282.033 370.553 277.908 370.862 277.096C371.193 276.23 378.695 280.505 389.74 279.885C396.847 279.479 397.081 277.523 402.47 278.197C408.052 278.902 409.247 281.178 417.464 282.493C421.636 283.166 424.571 283.091 425.328 283.07C430.056 282.92 431.752 281.958 434.484 281.777C440.193 281.403 442.146 284.983 448.218 287.366C455.603 290.272 457.598 286.917 476.977 286.938C483.263 286.938 486.411 286.949 490.572 287.515C496.826 288.359 503.933 290.144 515.042 291.523C518.168 291.907 521.167 292.217 523.632 290.379C526.887 287.943 527.036 283.38 527.068 282.642C527.09 281.969 527.175 277.534 524.059 274.478C521.54 271.999 519.716 273.174 514.615 270.609C512.694 269.637 510.805 268.151 507.028 265.159C500.646 260.105 500.774 259.292 498.437 258.566C494.169 257.241 492.76 259.666 488.417 258.138C485.322 257.037 485.674 255.67 481.694 253.415C478.397 251.534 476.689 251.641 471.108 249.974C467.074 248.766 464.257 247.612 460.949 246.244C448.41 241.083 447.663 238.176 441.207 237.642C439.393 237.492 437.515 237.567 435.338 236.349C432.649 234.852 432.531 233.078 429.469 230.76C426.427 228.451 423.536 227.938 423.6 227.746C423.685 227.489 428.925 229.84 436.053 230.61C441.559 231.208 442.392 230.236 446.5 230.898C452.604 231.882 452.636 234.318 459.519 236.915C464.855 238.924 470.329 239.255 481.267 239.928C486.645 240.26 486.389 239.982 488.278 240.356C496.068 241.884 496.836 245.731 504.445 248.232C510.506 250.22 511.083 248.136 518.328 250.529C523.717 252.303 523.653 253.543 528.626 254.825C531.86 255.659 537.238 256.963 542.51 254.537C543.993 253.853 547.504 252.239 548.229 249.087C548.731 246.896 547.674 244.887 544.943 241.061C539.308 233.175 536.491 229.231 531.497 225.726C526.268 222.061 524.913 222.948 519.908 218.844C516.29 215.884 515.138 213.896 512.47 210.968C506.665 204.578 504.413 205.486 494.585 197.931C489.431 193.977 483.476 189.392 477.554 182.168C475.227 179.326 472.858 176.024 468.248 171.995C464.78 168.96 464.748 169.633 460.661 166.267C453.532 160.379 453.426 158.166 447.215 153.796C443.982 151.53 443.363 151.669 441.058 149.639C436.864 145.93 433.502 141.196 434.185 140.47C434.932 139.679 439.767 144.37 450.064 149.927C455.283 152.738 455.795 152.481 461.941 155.516C468.6 158.808 469.038 159.631 481.971 167.271C493.379 174.004 495.727 174.955 501.713 179.304C502.898 180.17 501.735 179.347 510.154 185.898C519.929 193.496 523.803 196.392 529.469 199.085C531.892 200.239 531.924 200.057 533.908 201.094C537.366 202.889 540.375 205.059 546.074 210.263C554.312 217.797 553.885 218.652 557.087 220.009C558.314 220.533 561.291 221.067 567.246 222.157C573.424 223.29 574.651 223.236 575.548 222.445C576.775 221.355 576.519 218.556 575.975 212.988C575.537 208.521 575.313 206.288 574.406 203.819C572.869 199.673 571.61 199.94 570.255 196.371C568.889 192.769 569.113 189.702 569.54 183.899C570.052 176.868 571.087 177.135 570.831 173.298C570.5 168.287 568.686 166.993 567.256 161.116C566.04 156.115 566.573 153.849 566.253 148.933C565.826 142.318 563.82 136.697 559.818 125.434C556.446 115.955 552.999 108.496 551.377 105.087C547.44 96.8049 546.212 95.6294 543.363 88.6084C541.41 83.7888 540.29 80.1874 538.07 72.9848C535.242 63.8479 533.033 56.6666 533.78 56.3673C534.655 56.0147 538.39 65.6432 547.664 80.4439C552.252 87.7748 554.557 91.4403 557.108 94.347C561.59 99.4444 564.983 101.689 567.694 107.534C569.454 111.317 568.718 111.862 570.266 116.564C573.253 125.626 578.674 131.814 585.291 139.209C591.779 146.465 591.331 144.338 594.873 148.955C598.865 154.159 601.49 159.876 606.751 171.311C606.751 171.311 608.735 175.639 612.47 182.489C613.847 185.011 614.903 186.838 616.622 188.933C619.428 192.352 621.53 194.928 624.348 194.949C628.584 194.992 631.561 189.253 632.074 188.217C634.229 183.846 632.778 181.57 633.792 176.323C635.008 169.975 637.953 169.024 641.091 162.42C643.257 157.878 643.769 152.706 644.815 142.361C645.861 131.921 646.426 126.289 645.391 118.573C644.623 112.909 643.631 110.847 644.538 106.679C645.594 101.774 647.92 100.299 648.689 94.4966C649.116 91.2372 648.475 91.0769 648.689 86.3321C648.806 83.6712 649.222 74.6412 651.132 74.374L651.186 74.342Z" stroke="#2240FA" stroke-width="2" stroke-miterlimit="10"/>
</svg>
