<?xml version="1.0" encoding="UTF-8"?>
<svg id="Layer_1" data-name="Layer 1" xmlns="http://www.w3.org/2000/svg" viewBox="0 0 780.8 800.11">
  <defs>
    <style>
      .cls-1 {
        fill: none;
        stroke: #2240fa;
        stroke-miterlimit: 10;
        stroke-width: 2px;
      }
    </style>
  </defs>
  <path class="cls-1" d="M338.29,153.91c2.62-.37,6.74,17.03,6.12,22.05-.02.15-.22,1.74-.5,4.05-.14,1.12-.3,2.46-.48,4.03-.53,4.46-1.2,5.96-.98,8.57.26,3.07,1.25,4.52,2.07,6.86,2.56,7.31-.96,10.74,0,18.37.79,6.31,3.38,5.37,6.02,13.47,3.91,12.01-.86,16.87,3.92,24.5.38.61,5.76,8.95,12,7.59,4.28-.93,6.39-6.4,7.59-9.55,1.56-4.07.91-6.1,1.22-14.21.09-2.27.55-7.15,1.47-16.9,1.35-14.32,1.6-13.36,1.47-15.92-.49-9.46-3.29-11.2-1.71-17.64.69-2.81,1.81-4.89,1.73-8.82-.08-3.49-1.02-4.49-1.48-7.35-1-6.26,2.31-9.08,3.77-16.23,1.02-5-.12-5.98-.41-14.49-.64-18.41,3.52-19.26,2.54-32.47-.27-3.61-1.66-8.67-1.32-16.21.05-1.17.65-8.96,1.32-8.29.53.53,3.86,12.13,4.01,24.75.08,6.94-.65,8.43,0,14.92.63,6.29,1.6,7.7,2.13,14.33.5,6.17-.26,5.91,0,13.73.39,11.75,2.12,12.64.83,18.47-.99,4.47-2.27,5.16-2.76,10.02-.23,2.27-.03,2.93.24,10.27.3,8.08.08,7.91.36,9.55.99,5.88,3.61,7.22,5.73,12.18,3.31,7.75-.9,9.61.95,23.04,1.02,7.39,2.98,11.71,5.13,16.47,3.42,7.56,5.69,8.94,7.52,9.31,2.31.47,5.09-.45,6.8-2.27,3.56-3.77-.34-8.32,2.51-14.68,2.42-5.41,6.1-4.03,8.83-10.27,1.02-2.33,1.55-5.17,2.63-10.86.73-3.9.79-5.33,2.03-7.4,1.72-2.87,3.21-2.81,4.66-5.37,1.58-2.81.81-4.71,1.19-8.59.62-6.32,5.24-17.81,5.24-16.54,0,3.39,3.25,16.81-1.18,23.94-.56.91-2.06,3.07-2.63,6.33-.46,2.65.01,4.24.12,5.85.52,7.61-5.32,10.52-5.99,18.78-.39,4.79.05,4.46-.93,9.75-.75,4.05-2.5,5.01-2.27,8.24.23,3.19,2.28,6.91,5.37,8.12,4.22,1.65,8.89-1.95,13.49-5.49,2.1-1.62,8.73-7.02,14.2-17.19,3.1-5.76,2.39-6.65,5.97-12.65,3.48-5.83,4.65-5.82,7.76-11.22,3.4-5.9,5.02-11.16,6.09-14.68,2.85-9.43,1.17-9.94,3.58-14.8,2.99-6.04,6.03-6.16,11.34-13.37,2.45-3.32,3.19-5.18,7.04-13.13,8.21-16.95,12.48-25.81,13.61-25.07.33.22,2.48,11.75-2.39,21.37-3.07,6.06-5.97,6.8-7.28,12.65-1.24,5.51.83,7.03,0,14.09-.75,6.37-2.62,6.67-4.06,13.13-1.84,8.28.99,10.09-3.44,19.56-1.29,2.75-7.67,8.16-8.31,18.77-.72,11.95-3.82,15.17-5.78,19.87-2.25,5.39,2.69,7.2.45,11.75-1.33,2.71-1.39,5.98-2.03,12.29-.63,6.2-.31,8.11.73,9.85.28.47,2,3.35,4.75,3.95,4.54.99,7.41-5.17,17.71-14.19,5.09-4.46,10.18-8.92,17.94-12.66,3.73-1.8,5.51-2.2,8.85-4.45,4.08-2.76,5.66-5.03,10.77-11.01,7.81-9.13,11.81-13.77,16.76-17.29,3.88-2.75,4.37-2.32,9.21-5.79,5.95-4.26,9.59-8.05,11.91-10.33,9.57-9.42,23.23-19.44,24.68-18.03,1.26,1.22-5.93,11.79-14.28,20.2-5.3,5.34-13.66,12.43-19.68,17.18-2.48,1.96-6.42,4.98-10.33,10.13-2.07,2.73-1.89,3.1-4.48,6.65-.82,1.12-2.43,3.28-9.74,11.19-5.39,5.83-8.08,8.75-9.28,9.67-3.17,2.45-5.48,3.52-8.09,6.91-1.46,1.89-1.78,2.9-3.22,5.59-1.28,2.38-4.3,7.98-8.62,12.64-5.11,5.5-7.46,4.74-10.07,9.48-1.42,2.57-1.83,4.81-2.5,8.42-.78,4.2-1.42,7.92.11,12.01.62,1.65,1.45,3.87,3.62,5.31,3.66,2.44,8.44.9,10.33.3,4.4-1.41,5.11-3.44,11.73-6.86,1.55-.8,2.87-1.93,5.02-2.29,2.76-.46,3.33.65,5.76.22,2.71-.48,3.11-2.06,6.89-4.05,1.8-.95,1.89-.68,5.77-2.11,5.6-2.07,6.46-3.01,10.68-4.5,3.45-1.22,3.97-.98,8.13-2.14,9.8-2.73,14.81-6.26,15.32-5.48.31.47-1.55,1.74-8.47,8.3-3.53,3.34-5.36,5.21-8.75,6.87-2.2,1.08-2.21.69-4.87,1.8-7.38,3.1-7.89,6.43-13.94,8.24-3.45,1.03-3.74.09-6.21,1.32-3.16,1.59-4.14,3.88-7.63,4.99-1.89.6-1.94-.03-3.66.51-3,.94-3.97,3-6.97,6.11-4.34,4.5-5.4,3.39-7.16,6.28-1.75,2.88-3.03,7.8-.7,10.62,2.13,2.58,6.32,2.2,8.62,1.99,6.69-.6,8.81-4.05,14.9-6.22,3.9-1.39,4.82-.61,15.96-.76,6.5-.09,14.95-.23,24.75-1.74,10.08-1.55,15.12-2.32,19.52-4.88,2.28-1.33,5.13-3.37,9.86-4.49,3.49-.82,4.72-.36,8.73-.64,5.07-.35,9.46-1.79,18.24-4.68,8.71-2.86,8.17-3.27,11.7-4.08,8.43-1.94,17.56-1.66,17.88,0,.31,1.61-7.75,4.46-12.46,6.12-8.42,2.97-13.18,4.95-19.65,5.04-1.84.02-3.05-.1-5.02.37-4.62,1.11-5.67,3.66-10.13,6.73-4.01,2.76-4.65,1.72-16.12,6.8-4.78,2.12-4.31,2.23-6.21,2.88-6.37,2.18-8.65.63-15.45,1.7-6.77,1.06-5.23,2.71-15.53,5.25-4.08,1.01-6.88,1.38-10.52,3.59-3.84,2.33-3.18,3.41-5.72,4.56-6.2,2.82-10.84-3.25-17.94-.91-3.07,1.01-6.66,3.62-6.75,6.69-.1,3.38,4.09,5.85,4.99,6.39,3.48,2.06,6.83,1.99,11.92,1.82,16.77-.55,19.37-.63,23.12-.18,6.54.79,5.45,1.87,11.62,2.68,12.09,1.58,13.82-2.92,25.78-2.3,9.65.5,11.42,3.58,21.95,2.95.6-.04,3.71-.44,9.92-1.24,12.83-1.66,14.35-1.98,17.98-2.2,3.63-.22,5.37-.1,15.02.37,22.64,1.09,25.52,1.01,25.57,1.61.1,1.33-13.77,5.97-29.07,5.16-5.63-.3-9.89-1.26-16.06.6-1.43.43-4.71,1.77-11.28,4.45-6.06,2.47-6.39,2.7-8.23,3.25-5.07,1.52-9.25,1.77-12.21,1.92-7.1.38-8.04-.73-14.07,0-4.28.52-4.25,1.14-8.89,1.92-6.47,1.1-11.58.76-16.52.4-6.73-.49-6.11-1.14-16.63-2.35-.36-.04-6.32-.71-14.29-.95-5.12-.15-8.26-.03-11.92,1.23-4.9,1.69-6.35,3.92-6.72,4.54-.3.49-1.95,3.26-1.04,6.15.91,2.89,3.83,4.13,8.33,6.06,3.49,1.49,6.13,1.82,6.72,1.89,2.67.31,3.4-.11,5.58,0,4.41.22,6.08,2.17,9.75,3.41,4.4,1.48,4.93-.34,12.49,0,8.56.38,16.45,3.1,19.31,4.16,2.48.93,3.98,1.68,6.81,2.18,4.23.75,5.56-.09,9.52.62,4.57.81,8.35,2.91,8.2,3.41-.15.51-4.21-.99-11.03-1.18-6.19-.17-6.43.96-10.83.26-4-.64-4.65-1.71-9.25-2.23-2-.23-1.94-.03-7.09-.13-8.28-.16-7.79-.65-9.78-.26-4.83.95-5.27,3.37-9.91,3.65-1.48.09-2.91-.17-5.78-.7-3.89-.71-4.35-1.22-8.34-2.1-5.51-1.22-8.27-1.04-9.52-.92-4.27.43-5.38,1.77-5.71,2.23-.1.13-1.25,1.78-.79,3.68.51,2.13,2.57,2.56,5.84,5.05,3.69,2.81,3.06,3.77,5.64,5.38,3.11,1.94,5.24,1.31,9.58,2.03,2.46.41,5.94,1.99,12.8,5.12,9.8,4.48,14.7,6.71,14.47,7.38-.26.76-6.44-.11-12.19-2.22-6.02-2.21-7.1-4.14-12.55-5.04-2.16-.36-4.77-.51-7.32-.66-5.16-.3-6.07-.02-8.16-.84-2.14-.84-2.42-1.64-5.4-2.7-2-.71-3.88-1.36-4.92-.48-1.14.96-.67,3.22-.6,3.54.51,2.41,2.27,3.89,7.98,7.62,6.15,4.02,9.29,6.05,12.29,7.04,3.99,1.31,4.09.49,7.69,1.84,3.5,1.32,5.83,3.06,10.35,6.49,4.89,3.72,4.46,4.02,8.8,7.15,4.19,3.02,4.99,3.02,8.03,5.57,1.32,1.11,1.79,1.63,6.44,6.44,4.62,4.78,6.94,7.18,7.52,7.62,2.83,2.18,5.69,3.35,11.41,5.69,7.04,2.88,6.83,1.92,10.35,3.92,2.81,1.59,4.41,3.03,7.39,3.19,1.83.1,2.59-.37,4.48,0,2.55.5,4.2,1.96,5.21,2.8,6.41,5.36,11.39,6.5,11.03,7.56-.49,1.43-10.02.65-18.36-2.74-3.23-1.31-5.09-2.54-9.35-3.58-3.48-.86-4.1-.49-8.24-1.63-3.5-.95-4.35-1.56-7.14-1.92-3.2-.41-3.48.21-5.88-.18-3.14-.51-3.38-1.69-8.33-4.08-4.09-1.96-8.04-3.14-9.41-3.54-3.32-.97-4.04-.89-5.94-1.86-2.02-1.03-2.74-1.9-5.76-4.44-2.83-2.38-4.63-3.89-6.66-5.16-3.55-2.22-6.74-3.04-9.65-3.78-6.72-1.71-7.53-.3-11.87-2.1-4.15-1.72-3.83-3.19-8.21-4.86-3.86-1.47-7.38-1.58-9.29-1.62-5.97-.13-8.28,1.49-11.41-.32-1.95-1.12-1.89-2.24-3.5-2.58-3.05-.65-7.33,2.46-8,6.02-.25,1.34-.01,2.86,4.43,8.99,4.31,5.95,6.47,8.92,10.18,12.96,2.45,2.66,4.9,5.06,5.22,8.73.13,1.48-.2,1.8.07,3.31.58,3.25,2.67,4.72,4.76,7.54,2.3,3.1,1.76,3.98,3.77,7.47,1.62,2.83,2.83,3.73,11.37,11.5,7.96,7.24,8.95,8.3,9.98,9.52,2.19,2.57,4.65,5.45,6.87,9.85,1.91,3.77,1.7,4.8,3.64,7.8,2.07,3.2,3.28,3.54,6.68,7.21,4.69,5.05,7.41,9.83,8.46,11.7,3.01,5.35,1.81,5.22,4.69,9.98,2.19,3.61,4.37,7.2,8.26,10.71,1.37,1.23,2.84,2.36,4.43,4.63,1.52,2.17,3.22,5.5,2.58,6.02-1.35,1.09-12.65-10.74-13.82-11.96-5.65-5.94-5.41-6.63-9.92-10.84-4.79-4.48-5.76-4.35-10.51-8.92-3.52-3.39-5.94-6.3-9.06-10.05-5.89-7.09-5.31-7.44-8.73-10.71-2.5-2.39-5.9-5.6-11.11-7.8-2.08-.88-2.35-.71-3.7-1.52-3.73-2.24-3.64-4.72-7.8-8.4-2.3-2.03-2.81-1.7-4.1-3.37-2.04-2.64-1.42-4.32-2.78-6.81-1.97-3.62-4.71-2.71-8.46-6.21-4.17-3.89-2.1-6.25-6.28-11.11-3.53-4.1-5.15-2.6-10.19-7.52-4.22-4.12-4.4-6.47-7.6-7.78-3.53-1.44-8.21-1.4-9.5.72-.68,1.11-.16,2.35.45,4.53,2.03,7.24.15,7.27,1.9,12.4,1.32,3.86,3.93,8.36,6.52,11.5.73.89,1.56,1.79,2.17,3.35,1,2.56.16,3.66,1.18,6.43.71,1.94,1.17,1.53,2.08,3.8.92,2.31.56,3.02,1.45,5.52.66,1.87,1.01,1.9,1.99,4.07,1.32,2.93,2.36,6.57,1.9,6.79-.53.25-2.38-4.35-7.33-10.5-1.1-1.36-2.19-2.61-3.8-4.89-1.79-2.53-2.96-4.55-3.26-5.07-2.43-4.24-1.94-4.72-4.07-8.69-2.34-4.34-3.3-4.44-4.89-8.24-1.2-2.86-.66-2.84-1.81-5.43-.88-1.99-2.52-5.59-6.19-8.18-1.79-1.26-3.62-2.55-5.78-2.12-2.69.53-4.7,3.47-4.96,6.14-.28,2.93,1.77,3.35,2.41,7.55.59,3.86-1.04,4.23-.17,8.01.5,2.18,1.24,2.96,1.65,5.85.32,2.26-.06,2.32.22,3.83.66,3.53,2.87,3.92,4.38,7.44,1.12,2.63.16,3.05,1.09,7.44.73,3.45,1.44,3.69,2.74,7.66,1.72,5.26,2.24,10.2,2.41,12.8.24,3.76-.1,5.23.77,8.43.76,2.81,1.27,2.64,2.19,5.47,1.29,3.98.52,5.13,1.53,12.26.51,3.63.77,5.45,1.42,6.89,1.8,3.99,3.89,4.03,5.25,7.88.96,2.72.04,3.06,1.2,6.78.93,2.98,1.62,3.07,2.41,5.8.25.88.56,2.18.77,7.22.33,8.16.27,8.38.11,8.43-1.17.34-2.12-9.33-9.75-17.92-2.26-2.55-4.7-4.53-5.9-8.58-1.01-3.41.06-4.23-.72-7.42-1.3-5.33-5.15-6.56-8.85-11.71-2.4-3.34-.89-3.01-4.92-12.7-3.42-8.22-4.55-8.83-6.08-14.22-1.84-6.5-.34-6.12-2.06-10.46-2.58-6.5-6.14-7.82-7.6-14.48-.69-3.14.13-2.7-.54-5.99-.21-1.02-2.78-12.81-11.18-14.93-1.23-.31-3.37-.85-5.54.09-4.48,1.94-5.95,8.83-7.78,17.43-.54,2.55-.83,4.56-2.06,7.51-1.3,3.12-2.14,3.66-2.86,5.99-.97,3.14-.42,5.28-.09,8.94,0,0,.55,6.21-.27,12.7-1,7.86-3.77,8.15-5.19,15.65-.55,2.89-.23,3.38.45,15.56.56,10.02.25,7.85.89,19.85.34,6.26.54,12.52.98,18.78.29,4.11.44,5.55.27,8.14-.32,4.67-1.27,6.43-.8,10.1.41,3.26,1.29,2.86,2.06,6.44,1.35,6.27-.31,12.21-1.07,14.93-.53,1.88-.98,2.92-1.38,5.26-.35,2.04-.31,3-.61,6.53-.35,4.12-.52,6.19-.83,6.22-.84.1-3.13-7.67-3.64-16.24-.23-3.85-.08-7.52.15-13.2.15-3.64.32-5.69.3-9.56-.02-4.29-.03-6.43-.38-8.5-1.03-6.13-3.73-7.51-5.84-13.05-1.04-2.72-1.2-6.75-1.52-14.8-.57-14.4,1.02-15.38-.93-20.38-.92-2.35-2.32-4.83-2.55-8.88-.15-2.69.37-3.34.1-6.46-.24-2.8-.8-3.85-1.74-7.81-.46-1.95-.79-3.87-1.45-7.72-1.75-10.22-2.69-15.71-2.89-22.67-.11-3.59-.09-9.86-1.47-17.28-.31-1.67-.86-4.29-3.05-5.86-2.79-2-6.39-.96-6.71-.85-4.58,1.4-7.02,6.75-7.45,10.62-.27,2.4.41,2.73,0,6.1-.31,2.53-.59,4.86-2.2,6.96-1.58,2.07-2.86,1.85-3.54,3.66-.51,1.36.02,2,.4,5.16.32,2.67.01,2.78.23,6.56.22,3.83.54,3.93.68,6.56.25,4.95-.68,8.79-.91,9.65-1,3.92-1.76,3.36-3.47,8.67-1.11,3.45-1.81,5.63-1.99,8.74-.13,2.15.07,3.47-.45,6.1-.46,2.33-.86,2.51-1.23,4.34-.54,2.69.13,3.28.38,8.11.06,1.15,0,3.54-.09,8.3-.07,3.14-.11,3.67-.28,4.43-.71,3.19-2.75,6.53-3.83,6.27-1.35-.32-1.23-6.27-1.13-11.06.08-3.76.38-4.98-.2-7.47-.79-3.34-1.85-3.28-2.27-5.94-.53-3.28.94-4.31,1.56-9.32.19-1.55.13-3.49,0-7.37-.03-.87-.16-4.63-.7-10.98-.51-5.97-.69-6.24-.45-7.78.6-3.74,2.03-4.13,3.19-8.22,1-3.52.24-4.28.77-9.56.5-5.06,1.24-4.78,2.23-10.97,1.3-8.12.57-12,.13-13.83-.67-2.75-1.66-4.77-3.38-6.25-.73-.63-2.15-1.82-4.21-1.85-.48,0-1.83.04-3.12.89-1.25.83-1.94,2.1-2.74,4.85-1.09,3.76-2.29,3.6-2.89,5.99-.78,3.1-4.26-.15-4.45,4.32s-4.29,8.99-5.89,14.26c-2.4,7.91-1,8.33-3.12,13.41-1.62,3.89-2.42,3.48-5.46,10.12-3.74,8.14-4.15,11.73-6.38,15.16-.87,1.33-1.18.83-2.71,1.76-2.17,1.32-2.94,4.49-4.16,7.38-3.21,7.6-4.26,6.38-5.63,10.73-1.47,4.64-2.2,6.5-2.3,8.27-.25,4.58.54,4.37,0,6.8-.56,2.54-2.5,5.16-6.37,10.41-1.23,1.67-2.39,3.15-3.53,5.59-.81,1.73-1.17,3.03-1.46,3.96-1.63,5.26-4.76,11.69-5.68,11.45-.93-.25-1.11-5.37.6-9.9.86-2.27,1.34-2.12,1.94-4.1,1.13-3.72-.39-4.84.06-9.38.31-3.17,1.07-2.78,1.98-8.12.48-2.76.36-3.38.9-5.23.89-3.06,2.02-4.19,3.01-6.19,1.23-2.52.79-3.49,1.08-15.1.09-3.58.2-6.04.36-8.6.45-6.99.95-8.87,1.32-10.04.45-1.42.49-1.12,3.01-6.92,1.61-3.72,2.42-5.58,2.71-6.5.63-2,.7-3.12,1.14-10.89.21-3.63.63-7.25.63-10.88,0-3.58-.21-5.76.68-9.02.49-1.81.68-1.57,1.74-4.48,1.85-5.06,1.47-6.23,3.21-11.04,1.37-3.8,1.69-3.28,2.16-5.38,1.02-4.51-.12-8.32-.58-9.82-.56-1.79-2.01-6.44-6.43-9.59-1.39-.99-3.66-2.61-6.55-2.4-.81.06-1.55.25-5.96,2.87-1.76,1.04-3.16,1.91-7.19,4.39-2.4,1.48-3.64,2.23-5.32,2.98-2.09.93-2.3.76-3.22,1.34-2.34,1.49-2.9,3.85-4.03,6.49-1.2,2.8-2.52,4.59-5.15,8.19-3.47,4.75-4.25,3.91-8.24,9.06-2.87,3.71-4.32,5.58-5.85,8.36,0,0-1.78,3.25-4.51,5.72-.5.45-1.03.87-1.74,1.25-1.43.76-2.41.73-3.4,1.04-1.69.52-2.49,1.73-3.75,3.19-2.37,2.76-6.46,6.51-7.15,6.04-.92-.63,2.34-10.05,9.79-15.76,1.57-1.2,2.19-1.37,3.54-2.72.74-.74,3.18-3.31,5.88-11.41,1.63-4.89,1.32-5.67,2.84-8.23.79-1.33,2.06-2.75,4.57-5.53,4.54-5.04,5.24-5.21,6.47-7.43,1.44-2.6,1.94-5,2.29-6.66.86-4.11-.02-4.37.65-7.09,1.3-5.29,4.92-5.47,6.27-11.03.39-1.6,1-4.13-.4-6.34-1.3-2.04-3.92-3.18-6.16-2.95-2.03.21-2.22,1.39-4.69,2.08-3.03.85-3.6-.68-6.46-.15-3.23.59-3.37,2.7-8.69,5.39-2.22,1.12-2.01.66-4.29,1.79-5.15,2.55-4.95,4.27-8.53,5.77-4.2,1.76-5.09-.36-9.67,1.71-2.42,1.09-3.25,2.17-5.85,2.6-2.54.42-3.14-.38-5.12-.08-3.21.49-4.21,2.98-7.47,5.85-1.96,1.72-1.44.69-10.72,5.69-8.21,4.42-8.74,5.3-11.37,5.6-.82.09-2.69.23-4.71,1.38-1.81,1.03-1.73,1.86-3.17,2.76-2.59,1.63-4.17-.06-7.64.97-1.34.4-3.03,1.76-6.34,4.47-2.42,1.98-3.83,3.27-5.2,4.47-4.19,3.67-6.29,5.51-9.02,7.15-2.96,1.78-7.87,4.74-14.13,4.79-2.83.03-4.63-.55-7.55.49-2.29.82-2.66,1.69-5.44,2.84-2.63,1.09-8.25,1.92-7.39,1.22,1.65-1.35,3.42-5.43,8.69-7.23,2.97-1.02,3.36-.21,6.25-1.22,3.94-1.37,5.35-3.59,9.5-6.99,4.1-3.35,6.29-4.93,8.85-5.85,3.51-1.26,4.3-.44,6.94-1.97,3.16-1.83,3.33-3.77,6.39-5.16,2.56-1.17,3.17-.14,5.9-.9,5.49-1.53,5.41-6.35,12.62-10.82,1.6-.99,3.01-1.62,5.82-2.87,4.71-2.1,6.24-2.25,8.61-3.36,3.56-1.67,3.47-2.89,9.59-8.44,2.66-2.42,6.77-6.11,12.62-9.67,3.04-1.85,5.58-3.38,9.35-4.59,4.81-1.55,5.42-.59,8.85-2.05,1.06-.45,1.99-.96,9.84-8.03,4.78-4.3,5.71-5.27,6.11-7.1.67-3.08-.78-5.82-1.48-7.15-.41-.77-2.36-4.43-6.17-5.57-.79-.24-2.16-.62-3.42,0-1.14.57-.94,1.35-2.08,2.44-1.12,1.07-2.86,1.45-6.28,2.16-2.58.53-2.22.27-2.97.54-3.42,1.22-3.2,3.95-6,5.03-1.94.75-2.27-.47-6.83-.23-.94.05-2.86.17-5.16.82-3.4.97-3.28,1.88-5.97,2.57-2.77.7-3.27-.17-7.66.25-3.54.34-5.39,1.12-5.5.83-.15-.41,3.36-2.47,7.66-3.66,3.95-1.09,4.6-.35,7.75-1.5,2.8-1.03,4.67-2.49,6.91-4.25,4.35-3.41,4.69-5.09,7.58-6,2.02-.63,2.48,0,5.75-.08,2.43-.06,9.33-.21,13.49-4.66.31-.33,4.07-4.44,2.75-7.75-.75-1.87-2.77-2.62-6.5-4-2.45-.91-4.63-1.28-7.83-1.83-1.7-.29-2.57-.44-3.33-.42-3.29.09-5.33,1.82-6.91,2.67-4.39,2.33-6.81-1.33-17.99-2.08-4.72-.32-8.21-.55-12.66.33-1.94.38-4.4,1.05-8,.92-2.79-.1-3.53-.59-5.41-.75-4.98-.42-6.45,2.4-12.66,4.33-1.44.45-5.84.83-14.66,1.58-4.55.39-6.68.5-9.58,1.75-3.68,1.59-3.63,2.87-6.5,4.08-4.3,1.82-7.49.23-14.57-.75,0,0-5.32-.74-14.07-.5-13.81.37-22.13,5.02-22.49,4.16-.43-1.04,10.99-9.86,26.48-11.66,9.56-1.11,10.61,1.62,21.74-.17,9.55-1.53,10.83-3.87,19.07-3.83,4.05.02,7.4.6,12.41-.83,3.65-1.05,4.14-2,8.08-3.66,4.18-1.76,8.54-2.36,17.07-3.5,10.05-1.33,11.11-.77,15.16-2.33,4.71-1.82,3.8-2.79,9.83-5.58,7.22-3.34,9.59-2.44,14.32-6,4.09-3.07,5.29-5.98,5.66-7,.23-.63,2.08-5.71-.25-8.08-.96-.98-2.96-1.08-6.91-1.25-4.41-.19-4.81.28-6.91-.25-2.51-.63-2.41-1.42-5.83-2.83-1.59-.66-4.54-1.88-7.91-1.83-3.34.05-3.85,1.29-7.08,1.92-3.54.69-5.25-.35-13.99-2.67-5.3-1.4-7.95-2.11-10.99-2.58-6.57-1.03-8.86-.28-14.91-.75-7.09-.55-15.63-2.18-15.57-3.28.06-1.23,10.83.09,23.74-2.72,1.53-.33,4.84-1.1,9.24-.83,3.95.24,6.53,1.19,8.25,1.67,8.43,2.36,10.71-2.35,25.15-2.75,9.05-.25,13.57-.38,16.99.42,2.43.57,5.09,1.44,7.17.02,2.29-1.55,2.74-5.1,2.4-7.47-.72-4.99-5.36-7.81-6.72-8.64-4.85-2.95-6.58-.75-11.86-3.5-5.07-2.63-5.03-5.46-9.67-6.99-2.95-.98-4.79-.44-8.78-.14-3.97.3-9.73-.4-21.26-1.78-7.56-.91-11.34-1.36-15.7-2.33-8.26-1.83-12.39-2.74-16.46-5.35-2.14-1.37-3.79-2.82-7.06-3.84-2.06-.64-4.19-.78-8.37-1.03-7.28-.43-7.68.11-10.35-.69-2.87-.86-2.86-1.62-7.2-3.29-3.06-1.18-4.54-1.37-6.93-2.06-7.01-2.03-13.11-5.89-12.82-6.65.31-.81,7.34,3.19,17.69,2.61,6.66-.38,6.88-2.21,11.93-1.58,5.23.66,6.35,2.79,14.05,4.02,3.91.63,6.66.56,7.37.54,4.43-.14,6.02-1.04,8.58-1.21,5.35-.35,7.18,3,12.87,5.23,6.92,2.72,8.79-.42,26.95-.4,5.89,0,8.84.01,12.74.54,5.86.79,12.52,2.46,22.93,3.75,2.93.36,5.74.65,8.05-1.07,3.05-2.28,3.19-6.55,3.22-7.24.02-.63.1-4.78-2.82-7.64-2.36-2.32-4.07-1.22-8.85-3.62-1.8-.91-3.57-2.3-7.11-5.1-5.98-4.73-5.86-5.49-8.05-6.17-4-1.24-5.32,1.03-9.39-.4-2.9-1.03-2.57-2.31-6.3-4.42-3.09-1.76-4.69-1.66-9.92-3.22-3.78-1.13-6.42-2.21-9.52-3.49-11.75-4.83-12.45-7.55-18.5-8.05-1.7-.14-3.46-.07-5.5-1.21-2.52-1.4-2.63-3.06-5.5-5.23-2.85-2.16-5.56-2.64-5.5-2.82.08-.24,4.99,1.96,11.67,2.68,5.16.56,5.94-.35,9.79.27,5.72.92,5.75,3.2,12.2,5.63,5,1.88,10.13,2.19,20.38,2.82,5.04.31,4.8.05,6.57.4,7.3,1.43,8.02,5.03,15.15,7.37,5.68,1.86,6.22-.09,13.01,2.15,5.05,1.66,4.99,2.82,9.65,4.02,3.03.78,8.07,2,13.01-.27,1.39-.64,4.68-2.15,5.36-5.1.47-2.05-.52-3.93-3.08-7.51-5.28-7.38-7.92-11.07-12.6-14.35-4.9-3.43-6.17-2.6-10.86-6.44-3.39-2.77-4.47-4.63-6.97-7.37-5.44-5.98-7.55-5.13-16.76-12.2-4.83-3.7-10.41-7.99-15.96-14.75-2.18-2.66-4.4-5.75-8.72-9.52-3.25-2.84-3.28-2.21-7.11-5.36-6.68-5.51-6.78-7.58-12.6-11.67-3.03-2.12-3.61-1.99-5.77-3.89-3.93-3.47-7.08-7.9-6.44-8.58.7-.74,5.23,3.65,14.88,8.85,4.89,2.63,5.37,2.39,11.13,5.23,6.24,3.08,6.65,3.85,18.77,11,10.69,6.3,12.89,7.19,18.5,11.26,1.11.81.02.04,7.91,6.17,9.16,7.11,12.79,9.82,18.1,12.34,2.27,1.08,2.3.91,4.16,1.88,3.24,1.68,6.06,3.71,11.4,8.58,7.72,7.05,7.32,7.85,10.32,9.12,1.15.49,3.94.99,9.52,2.01,5.79,1.06,6.94,1.01,7.78.27,1.15-1.02.91-3.64.4-8.85-.41-4.18-.62-6.27-1.47-8.58-1.44-3.88-2.62-3.63-3.89-6.97-1.28-3.37-1.07-6.24-.67-11.67.48-6.58,1.45-6.33,1.21-9.92-.31-4.69-2.01-5.9-3.35-11.4-1.14-4.68-.64-6.8-.94-11.4-.4-6.19-2.28-11.45-6.03-21.99-3.16-8.87-6.39-15.85-7.91-19.04-3.69-7.75-4.84-8.85-7.51-15.42-1.83-4.51-2.88-7.88-4.96-14.62-2.65-8.55-4.72-15.27-4.02-15.55.82-.33,4.32,8.68,13.01,22.53,4.3,6.86,6.46,10.29,8.85,13.01,4.2,4.77,7.38,6.87,9.92,12.34,1.65,3.54.96,4.05,2.41,8.45,2.8,8.48,7.88,14.27,14.08,21.19,6.08,6.79,5.66,4.8,8.98,9.12,3.74,4.87,6.2,10.22,11.13,20.92,0,0,1.86,4.05,5.36,10.46,1.29,2.36,2.28,4.07,3.89,6.03,2.63,3.2,4.6,5.61,7.24,5.63,3.97.04,6.76-5.33,7.24-6.3,2.02-4.09.66-6.22,1.61-11.13,1.14-5.94,3.9-6.83,6.84-13.01,2.03-4.25,2.51-9.09,3.49-18.77.98-9.77,1.51-15.04.54-22.26-.72-5.3-1.65-7.23-.8-11.13.99-4.59,3.17-5.97,3.89-11.4.4-3.05-.2-3.2,0-7.64.11-2.49.5-10.94,2.29-11.19Z"/>
</svg>